<svg width="12" height="12" viewBox="0 0 20 20" xmlns="http://www.w3.org/2000/svg"><g fill="#BDBDBD"><path d="M4.167 8.5v8h11.666v-8H4.167zm0-2h11.666c.917 0 1.667.9 1.667 2v8c0 1.1-.75 2-1.667 2H4.167c-.917 0-1.667-.9-1.667-2v-8c0-1.1.75-2 1.667-2z"/><path d="M10 10.5c.55 0 1 .45 1 1v2c0 .55-.45 1-1 1s-1-.45-1-1v-2c0-.55.45-1 1-1zm2.864-3.556V6.08c0-1.685-1.269-3.024-2.864-3.024S7.136 4.396 7.136 6.08v.864h5.728zM10 1.5c2.495 0 5.5 2.018 4.5 4.53V8.5h-9V6.03C5.5 3.517 7.505 1.5 10 1.5z"/></g></svg>